/* XPM */
static const char *fsqlf_right_xpm[] = {
/* columns rows colors chars-per-pixel */
"48 48 6 1",
"  c #050000",
". c #006609",
"X c #170050",
"o c #FEFBFF",
"O c #FFFFFF",
"+ c None",
/* pixels */
"++++OOOOOOOOOOOOOOOOOOOOOOOOOOOOOOOOOOOOOOOO++++",
"++OOOOOOOOOOOOOOOOOOOOOOOOOOOOOOOOOOOOOOOOOOOO++",
"+OOOOOOOOOOOOOOOOOOOOOOOOOOOOOOOOOOOOOOOOOOOOOO+",
"+OOOOOOOOOOOOOOOOOOOOOOOOOOOOOOOOOOOOOOOOOOOOOO+",
"OOOOOOOOOOOOOOOOOOOOOOOOOOOOOOOOOOOOOOOOOOOOOOOO",
"OOOOOOOOOOOOOOOOOOOOOOOOOOOOOOOOOOOOOOOOOOOOOOOO",
"OXXXXXXXXOOOXXXXXXOOOOXXXXXOOOXXXXXXOOOXXXXXXXXO",
"OXXXXXXXXOXXXXXXXXOOXXXXXXXXXOXXXXXXOOOXXXXXXXXO",
"OXXXXXXXXOXXXXXXXXOOXXXXXXXXXOOXXXXXOOOXXXXXXXXO",
"OXXXXXXXXOXXXXXXXXOXXXXXXXXXXXOXXXXXOOOXXXXXXXXO",
"OXXXXXOOOOXXXXXXOOOXXXXXOXXXXXOXXXXXOOOXXXXXOOOO",
"OXXXXXOOOOXXXXXXOOOXXXXOOOXXXXOXXXXXOOOXXXXXOOOO",
"OXXXXXOOOOOXXXXXXOOXXXXOOOXXXXOXXXXXOOOXXXXXOOOO",
"OXXXXXXXXOOOOXXXXOOXXXXOOOXXXXOXXXXXOOOXXXXXXXXO",
"OXXXXXXXXOOOOOXXXOOXXXXOOOXXXXOXXXXXOOOXXXXXXXXO",
"OXXXXXOOOOOOOOXXXOOOXXXXOXXXXOOXXXXXOOOXXXXXOOOO",
"OXXXXXOOOOOXXXXXXOOOOXXXXXXXOOOXXXXXXXOXXXXXOOOO",
"OXXXXXOOOOOXXXXXOOOOOOXXXXXOOOOXXXXXXXOXXXXXOOOO",
"OOOOOOOOOOOOOOOOOOOOOOOOOXXXXOOOOOOOOOOOOOOOOOOO",
"OOOOOOOOOOOOOOOOOOOOOOOOOXXXOOOOOOOOOOOOOOOOOOOO",
"OOOOOOOOOOOOOOOOOOOOOOOOOOOOOOOOOOOOOOOOOOOOOOOO",
"OOOOOOOOOOOOOOOOOOOOOOOO                       O",
"OOOOOOOOOOOOOOOOOOOOOOOO OOOOOOOOOOOOOOOOOOOOO O",
"OOOOOOOOOOOOOOOOOOOOOOOO O    O  OOOOOOOOOOOOO O",
"OOOOOOOOOOOOOOOOOOOOOOOO OOOOOOOOOOOOOOOOOOOOO O",
"OOOOOOOOOOOOOOOOOOOOOOOO O    O    OOOOOOOOOOO O",
"OOOOOOOOOOOOOOOOOOOOOOOO OOOOOOOOOOOOOOOOOOOOO O",
"OOOOOOOOOOOOOOOOOOOOOOOO OO  O   O O    OOOOOO O",
"OOOOOOOOOOOOOOOOOOOOOOOO OOOOOOOOOOOOOOOOOOOOO O",
"OOOOOOOOOOOOOOOOOOOOOOOO O   O  oO O     OOOOO O",
"OOOOOOOOOOOOOOOOOOOOOOOO OOOOOOOOOOOOOOOOOOOOO O",
"OOOOOOOOOOOOOOOOOOOOOOOO O   O   O O    OOOOOO O",
"OOOOOOOOOOOOOOOOOOOOOOOO OOOOOOOOOOOOOOOOOOOOO O",
"OOOOOOOOOOOOOOOOOOOOOOOO OOOOOooOOOOOOOOOOOOOO O",
"OOOOOOOOOOOOOOOOOOOOOOOO OOOOO.O......O.....OO O",
"OOOOOOOOOOOOOOOOOOOOOOOO OOOOOOOOOOOOOOOOOOOOO O",
"OOOOOOOOOOOOOOOOOOOOOOOO OOOOO....OO........OO O",
"OOOOOOOOOOOOOOOOOOOOOOOO OOOOOOOOOOOOOOOOOOOOO O",
"OOOOOOOOOOOOOOOOOOOOOOOO OOOOO.......OO...O.OO O",
"OOOOOOOOOOOOOOOOOOOOOOOO OOOOOOOOOOOOOOOOOOOOO O",
"OOOOOOOOOOOOOOOOOOOOOOOO OOOOOOOOOOOOOOOOOOOOO O",
"OOOOOOOOOOOOOOOOOOOOOOOO                       O",
"OOOOOOOOOOOOOOOOOOOOOOOOOOOOOOOOOOOOOOOOOOOOOOOO",
"OOOOOOOOOOOOOOOOOOOOOOOOOOOOOOOOOOOOOOOOOOOOOOOO",
"+OOOOOOOOOOOOOOOOOOOOOOOOOOOOOOOOOOOOOOOOOOOOOO+",
"+OOOOOOOOOOOOOOOOOOOOOOOOOOOOOOOOOOOOOOOOOOOOOO+",
"++OOOOOOOOOOOOOOOOOOOOOOOOOOOOOOOOOOOOOOOOOOOO++",
"++++OOOOOOOOOOOOOOOOOOOOOOOOOOOOOOOOOOOOOOOO++++"
};

/* XPM */
static const char *fsqlf_right[] = {
/* columns rows colors chars-per-pixel */
"48 48 6 1",
"  c #050000",
". c #006609",
"X c #170050",
"o c #FEFBFF",
"O c #FFFFFF",
"+ c None",
/* pixels */
"++++OOOOOOOOOOOOOOOOOOOOOOOOOOOOOOOOOOOOOOOO++++",
"++OOOOOOOOOOOOOOOOOOOOOOOOOOOOOOOOOOOOOOOOOOOO++",
"+OOOOOOOOOOOOOOOOOOOOOOOOOOOOOOOOOOOOOOOOOOOOOO+",
"+OOOOOOOOOOOOOOOOOOOOOOOOOOOOOOOOOOOOOOOOOOOOOO+",
"OOOOOOOOOOOOOOOOOOOOOOOOOOOOOOOOOOOOOOOOOOOOOOOO",
"OOOOOOOOOOOOOOOOOOOOOOOOOOOOOOOOOOOOOOOOOOOOOOOO",
"OXXXXXXXXOOOXXXXXXOOOOXXXXXOOOXXXXXXOOOXXXXXXXXO",
"OXXXXXXXXOXXXXXXXXOOXXXXXXXXXOXXXXXXOOOXXXXXXXXO",
"OXXXXXXXXOXXXXXXXXOOXXXXXXXXXOOXXXXXOOOXXXXXXXXO",
"OXXXXXXXXOXXXXXXXXOXXXXXXXXXXXOXXXXXOOOXXXXXXXXO",
"OXXXXXOOOOXXXXXXOOOXXXXXOXXXXXOXXXXXOOOXXXXXOOOO",
"OXXXXXOOOOXXXXXXOOOXXXXOOOXXXXOXXXXXOOOXXXXXOOOO",
"OXXXXXOOOOOXXXXXXOOXXXXOOOXXXXOXXXXXOOOXXXXXOOOO",
"OXXXXXXXXOOOOXXXXOOXXXXOOOXXXXOXXXXXOOOXXXXXXXXO",
"OXXXXXXXXOOOOOXXXOOXXXXOOOXXXXOXXXXXOOOXXXXXXXXO",
"OXXXXXOOOOOOOOXXXOOOXXXXOXXXXOOXXXXXOOOXXXXXOOOO",
"OXXXXXOOOOOXXXXXXOOOOXXXXXXXOOOXXXXXXXOXXXXXOOOO",
"OXXXXXOOOOOXXXXXOOOOOOXXXXXOOOOXXXXXXXOXXXXXOOOO",
"OOOOOOOOOOOOOOOOOOOOOOOOOXXXXOOOOOOOOOOOOOOOOOOO",
"OOOOOOOOOOOOOOOOOOOOOOOOOXXXOOOOOOOOOOOOOOOOOOOO",
"OOOOOOOOOOOOOOOOOOOOOOOOOOOOOOOOOOOOOOOOOOOOOOOO",
"OOOOOOOOOOOOOOOOOOOOOOOO                       O",
"OOOOOOOOOOOOOOOOOOOOOOOO OOOOOOOOOOOOOOOOOOOOO O",
"OOOOOOOOOOOOOOOOOOOOOOOO O    O  OOOOOOOOOOOOO O",
"OOOOOOOOOOOOOOOOOOOOOOOO OOOOOOOOOOOOOOOOOOOOO O",
"OOOOOOOOOOOOOOOOOOOOOOOO O    O    OOOOOOOOOOO O",
"OOOOOOOOOOOOOOOOOOOOOOOO OOOOOOOOOOOOOOOOOOOOO O",
"OOOOOOOOOOOOOOOOOOOOOOOO OO  O   O O    OOOOOO O",
"OOOOOOOOOOOOOOOOOOOOOOOO OOOOOOOOOOOOOOOOOOOOO O",
"OOOOOOOOOOOOOOOOOOOOOOOO O   O  oO O     OOOOO O",
"OOOOOOOOOOOOOOOOOOOOOOOO OOOOOOOOOOOOOOOOOOOOO O",
"OOOOOOOOOOOOOOOOOOOOOOOO O   O   O O    OOOOOO O",
"OOOOOOOOOOOOOOOOOOOOOOOO OOOOOOOOOOOOOOOOOOOOO O",
"OOOOOOOOOOOOOOOOOOOOOOOO OOOOOooOOOOOOOOOOOOOO O",
"OOOOOOOOOOOOOOOOOOOOOOOO OOOOO.O......O.....OO O",
"OOOOOOOOOOOOOOOOOOOOOOOO OOOOOOOOOOOOOOOOOOOOO O",
"OOOOOOOOOOOOOOOOOOOOOOOO OOOOO....OO........OO O",
"OOOOOOOOOOOOOOOOOOOOOOOO OOOOOOOOOOOOOOOOOOOOO O",
"OOOOOOOOOOOOOOOOOOOOOOOO OOOOO.......OO...O.OO O",
"OOOOOOOOOOOOOOOOOOOOOOOO OOOOOOOOOOOOOOOOOOOOO O",
"OOOOOOOOOOOOOOOOOOOOOOOO OOOOOOOOOOOOOOOOOOOOO O",
"OOOOOOOOOOOOOOOOOOOOOOOO                       O",
"OOOOOOOOOOOOOOOOOOOOOOOOOOOOOOOOOOOOOOOOOOOOOOOO",
"OOOOOOOOOOOOOOOOOOOOOOOOOOOOOOOOOOOOOOOOOOOOOOOO",
"+OOOOOOOOOOOOOOOOOOOOOOOOOOOOOOOOOOOOOOOOOOOOOO+",
"+OOOOOOOOOOOOOOOOOOOOOOOOOOOOOOOOOOOOOOOOOOOOOO+",
"++OOOOOOOOOOOOOOOOOOOOOOOOOOOOOOOOOOOOOOOOOOOO++",
"++++OOOOOOOOOOOOOOOOOOOOOOOOOOOOOOOOOOOOOOOO++++"
};
